<svg xmlns="http://www.w3.org/2000/svg" width="720" height="420">
<text x="360.0" y="24" text-anchor="middle" font-size="18">Blocking vs EffectGuard Completion Time</text>
<line x1="70" y1="50" x2="70" y2="350" stroke="#333"/>
<line x1="70" y1="350" x2="700" y2="350" stroke="#333"/>
<text x="360.0" y="402" text-anchor="middle" font-size="13">Uncertainty Duration (ms)</text>
<text x="18" y="210.0" transform="rotate(-90 18 210.0)" text-anchor="middle" font-size="13">Mean Completion Time</text>
<text x="70.0" y="370" text-anchor="middle" font-size="11">100</text>
<text x="385.0" y="370" text-anchor="middle" font-size="11">1000</text>
<text x="700.0" y="370" text-anchor="middle" font-size="11">5000</text>
<line x1="66" y1="350.0" x2="70" y2="350.0" stroke="#333"/>
<text x="62" y="354.0" text-anchor="end" font-size="11">0.00</text>
<line x1="66" y1="275.0" x2="70" y2="275.0" stroke="#333"/>
<text x="62" y="279.0" text-anchor="end" font-size="11">1387.50</text>
<line x1="66" y1="200.0" x2="70" y2="200.0" stroke="#333"/>
<text x="62" y="204.0" text-anchor="end" font-size="11">2775.00</text>
<line x1="66" y1="125.0" x2="70" y2="125.0" stroke="#333"/>
<text x="62" y="129.0" text-anchor="end" font-size="11">4162.50</text>
<line x1="66" y1="50.0" x2="70" y2="50.0" stroke="#333"/>
<text x="62" y="54.0" text-anchor="end" font-size="11">5550.00</text>
<line x1="540" y1="44" x2="558" y2="44" stroke="#2f7d6b" stroke-width="2"/>
<text x="564" y="48" font-size="11">blocking</text>
<line x1="540" y1="62" x2="558" y2="62" stroke="#1d3557" stroke-width="2"/>
<text x="564" y="66" font-size="11">effectguard</text>
<polyline fill="none" stroke="#2f7d6b" stroke-width="2" points="70.0,341.8918918918919 385.0,266.21621621621625 700.0,50.0"/>
<polyline fill="none" stroke="#1d3557" stroke-width="2" points="70.0,344.5945945945946 385.0,295.94594594594594 700.0,79.72972972972974"/>
</svg>