<svg xmlns="http://www.w3.org/2000/svg" width="720" height="420">
<text x="360.0" y="24" text-anchor="middle" font-size="18">Primary Comparison Mean Differences</text>
<line x1="70" y1="50" x2="70" y2="330" stroke="#333"/>
<line x1="70" y1="330" x2="700" y2="330" stroke="#333"/>
<text x="18" y="210.0" transform="rotate(-90 18 210.0)" text-anchor="middle" font-size="13">Absolute Mean Difference</text>
<line x1="66" y1="330.0" x2="70" y2="330.0" stroke="#333"/>
<text x="62" y="334.0" text-anchor="end" font-size="11">0.00</text>
<line x1="66" y1="260.0" x2="70" y2="260.0" stroke="#333"/>
<text x="62" y="264.0" text-anchor="end" font-size="11">95.83</text>
<line x1="66" y1="190.0" x2="70" y2="190.0" stroke="#333"/>
<text x="62" y="194.0" text-anchor="end" font-size="11">191.67</text>
<line x1="66" y1="120.0" x2="70" y2="120.0" stroke="#333"/>
<text x="62" y="124.0" text-anchor="end" font-size="11">287.50</text>
<line x1="66" y1="50.0" x2="70" y2="50.0" stroke="#333"/>
<text x="62" y="54.0" text-anchor="end" font-size="11">383.33</text>
<rect x="139.0" y="329.76260869565215" width="72" height="0.23739130434785238" fill="#1d3557"/>
<text x="175.0" y="321.76260869565215" text-anchor="middle" font-size="11">0.33</text>
<text x="175.0" y="348" text-anchor="end" font-size="11" transform="rotate(-30 175.0 348)">P-C1</text>
<rect x="349.0" y="330.0" width="72" height="0.0" fill="#1d3557"/>
<text x="385.0" y="322.0" text-anchor="middle" font-size="11">0.00</text>
<text x="385.0" y="348" text-anchor="end" font-size="11" transform="rotate(-30 385.0 348)">P-C2</text>
<rect x="559.0" y="50.0" width="72" height="280.0" fill="#1d3557"/>
<text x="595.0" y="42.0" text-anchor="middle" font-size="11">383.33</text>
<text x="595.0" y="348" text-anchor="end" font-size="11" transform="rotate(-30 595.0 348)">P-C3</text>
</svg>